<svg xmlns="http://www.w3.org/2000/svg" viewBox="0 0 1600 900" role="img" aria-label="Иллюстрация объекта 3">
  <defs>
    <linearGradient id="sky" x1="0" y1="0" x2="0" y2="1"><stop offset="0" stop-color="#1a1f27"/><stop offset="1" stop-color="#56606e"/></linearGradient>
    <pattern id="grid" width="40" height="40" patternUnits="userSpaceOnUse"><path d="M40 0H0v40" fill="none" stroke="rgba(255,255,255,.05)"/></pattern>
    <pattern id="hz" width="40" height="40" patternUnits="userSpaceOnUse" patternTransform="rotate(45)"><rect width="20" height="40" fill="#ffcf33"/><rect x="20" width="20" height="40" fill="#0a0c0f"/></pattern>
  </defs>
  <rect width="1600" height="900" fill="url(#sky)"/><rect width="1600" height="900" fill="url(#grid)"/>
  <circle cx="560" cy="230" r="60" fill="#ff9a5a" opacity=".55"/>
  <path d="M-20 640 L14 520 L48 640Z" fill="#6b4b24" opacity=".85"/><path d="M92 640 L126 483 L160 640Z" fill="#6b4b24" opacity=".85"/><path d="M204 640 L238 446 L272 640Z" fill="#6b4b24" opacity=".85"/><path d="M265 640 L299 499 L333 640Z" fill="#6b4b24" opacity=".85"/><path d="M377 640 L411 462 L445 640Z" fill="#6b4b24" opacity=".85"/><path d="M489 640 L523 515 L557 640Z" fill="#6b4b24" opacity=".85"/><path d="M550 640 L584 478 L618 640Z" fill="#6b4b24" opacity=".85"/><path d="M662 640 L696 441 L730 640Z" fill="#6b4b24" opacity=".85"/><path d="M774 640 L808 494 L842 640Z" fill="#6b4b24" opacity=".85"/><path d="M835 640 L869 457 L903 640Z" fill="#6b4b24" opacity=".85"/><path d="M947 640 L981 510 L1015 640Z" fill="#6b4b24" opacity=".85"/><path d="M1059 640 L1093 473 L1127 640Z" fill="#6b4b24" opacity=".85"/><path d="M1120 640 L1154 436 L1188 640Z" fill="#6b4b24" opacity=".85"/><path d="M1232 640 L1266 489 L1300 640Z" fill="#6b4b24" opacity=".85"/><path d="M1344 640 L1378 452 L1412 640Z" fill="#6b4b24" opacity=".85"/><path d="M1405 640 L1439 505 L1473 640Z" fill="#6b4b24" opacity=".85"/><path d="M1517 640 L1551 468 L1585 640Z" fill="#6b4b24" opacity=".85"/><path d="M1629 640 L1663 431 L1697 640Z" fill="#6b4b24" opacity=".85"/>
  <rect y="640" width="1600" height="260" fill="#3a3122"/>
  <path d="M0 640 H1600" stroke="rgba(255,255,255,.12)" stroke-width="3"/>
  <rect x="120" y="690" width="38" height="44" fill="#8e959f"/><rect x="120" y="690" width="38" height="8" fill="#a7adb6"/><rect x="295" y="750" width="38" height="44" fill="#8e959f"/><rect x="295" y="750" width="38" height="8" fill="#a7adb6"/><rect x="470" y="690" width="38" height="44" fill="#8e959f"/><rect x="470" y="690" width="38" height="8" fill="#a7adb6"/><rect x="645" y="750" width="38" height="44" fill="#8e959f"/><rect x="645" y="750" width="38" height="8" fill="#a7adb6"/>
  
    <g transform="translate(960 230)">
      <rect x="150" y="-30" width="40" height="560" fill="#1d232c"/><rect x="158" y="-30" width="6" height="560" fill="#39414d"/>
      <path d="M170 300 v230" stroke="#8b93a1" stroke-width="16" stroke-dasharray="26 10"/>
      <rect x="-40" y="440" width="300" height="60" rx="6" fill="#3b4350"/><rect x="190" y="400" width="110" height="100" rx="8" fill="#c9c2a8"/><rect x="215" y="415" width="60" height="35" fill="#5b93e0" opacity=".7"/>
      <circle cx="0" cy="515" r="38" fill="#0f1216"/><circle cx="0" cy="515" r="14" fill="#39414d"/><circle cx="110" cy="515" r="38" fill="#0f1216"/><circle cx="110" cy="515" r="14" fill="#39414d"/><circle cx="250" cy="515" r="38" fill="#0f1216"/><circle cx="250" cy="515" r="14" fill="#39414d"/>
      <path d="M0 500 L-60 560 M260 500 L320 560" stroke="#ff6a1f" stroke-width="12"/>
    </g>
  <rect x="0" y="872" width="1600" height="28" fill="url(#hz)" opacity=".9"/>
  <g font-family="Oswald, Arial, sans-serif" fill="#e9eefc">
    <rect x="48" y="44" width="330" height="54" rx="8" fill="rgba(10,12,15,.72)" stroke="rgba(255,255,255,.18)"/>
    <text x="70" y="80" font-size="26" letter-spacing="3">ОБЪЕКТ № 03 · ИЛЛЮСТРАЦИЯ</text>
  </g>
</svg>
